<svg width="800" height="600" xmlns="http://www.w3.org/2000/svg">
  <defs>
    <linearGradient id="dashBg" x1="0%" y1="0%" x2="100%" y2="100%">
      <stop offset="0%" style="stop-color:#6366f1;stop-opacity:1" />
      <stop offset="100%" style="stop-color:#8b5cf6;stop-opacity:1" />
    </linearGradient>
  </defs>
  <rect width="800" height="600" fill="url(#dashBg)"/>
  
  <!-- Stats Cards -->
  <rect x="50" y="80" width="180" height="100" rx="10" fill="#ffffff" opacity="0.9"/>
  <rect x="260" y="80" width="180" height="100" rx="10" fill="#ffffff" opacity="0.9"/>
  <rect x="470" y="80" width="180" height="100" rx="10" fill="#ffffff" opacity="0.9"/>
  
  <!-- Chart Area -->
  <rect x="50" y="210" width="400" height="250" rx="10" fill="#ffffff" opacity="0.9"/>
  
  <!-- Bar Chart -->
  <rect x="80" y="350" width="40" height="80" fill="#6366f1" opacity="0.7"/>
  <rect x="140" y="320" width="40" height="110" fill="#6366f1" opacity="0.7"/>
  <rect x="200" y="340" width="40" height="90" fill="#6366f1" opacity="0.7"/>
  <rect x="260" y="300" width="40" height="130" fill="#6366f1" opacity="0.7"/>
  <rect x="320" y="330" width="40" height="100" fill="#6366f1" opacity="0.7"/>
  <rect x="380" y="310" width="40" height="120" fill="#6366f1" opacity="0.7"/>
  
  <!-- Pie Chart -->
  <circle cx="580" cy="335" r="90" fill="#ffffff" opacity="0.9"/>
  <path d="M 580 335 L 580 245 A 90 90 0 0 1 650 380 Z" fill="#6366f1" opacity="0.7"/>
  <path d="M 580 335 L 650 380 A 90 90 0 0 1 520 390 Z" fill="#8b5cf6" opacity="0.7"/>
  <path d="M 580 335 L 520 390 A 90 90 0 0 1 580 245 Z" fill="#a78bfa" opacity="0.7"/>
  
  <!-- Title -->
  <text x="400" y="550" font-family="Arial" font-size="24" font-weight="bold" fill="#ffffff" text-anchor="middle">AdminSuite Dashboard</text>
</svg>
